<?xml version="1.0" standalone="no"?>
<!DOCTYPE svg PUBLIC "-//W3C//DTD SVG 20010904//EN"
 "http://www.w3.org/TR/2001/REC-SVG-20010904/DTD/svg10.dtd">
<svg version="1.0" xmlns="http://www.w3.org/2000/svg"
 width="431.000000pt" height="578.000000pt" viewBox="0 0 431.000000 578.000000"
 preserveAspectRatio="xMidYMid meet">

<g transform="translate(0.000000,578.000000) scale(0.100000,-0.100000)"
fill="#000000" stroke="none">
<path d="M368 3135 c-9 -10 -11 -769 -2 -778 3 -3 12 -3 20 0 12 4 14 67 14
374 l0 369 93 0 c141 0 231 -38 311 -132 58 -67 79 -136 73 -243 -5 -107 -27
-163 -88 -230 -71 -77 -140 -105 -261 -105 -65 0 -78 -3 -78 -16 0 -14 14 -16
108 -12 99 3 112 6 170 37 121 66 181 164 190 311 3 53 0 108 -8 139 -26 111
-126 218 -243 263 -55 21 -284 38 -299 23z"/>
<path d="M2596 3133 c-3 -3 -6 -179 -6 -390 0 -334 2 -383 15 -383 13 0 15 49
15 384 0 212 -4 387 -9 390 -4 3 -11 3 -15 -1z"/>
<path d="M2334 3056 c-9 -24 4 -48 23 -44 12 2 18 12 18 28 0 29 -32 41 -41
16z"/>
<path d="M1210 2881 c-52 -17 -89 -42 -124 -83 -116 -135 -71 -350 89 -424 61
-29 172 -33 229 -9 61 26 123 90 146 151 25 68 25 84 0 84 -11 0 -20 -6 -20
-12 0 -37 -25 -91 -60 -131 -93 -105 -250 -108 -346 -5 -50 52 -64 89 -64 165
0 60 4 76 33 123 43 72 100 110 176 117 34 3 74 0 95 -7 41 -13 96 -56 96 -74
0 -6 -70 -59 -155 -116 -170 -114 -186 -127 -162 -136 14 -5 368 226 375 246
5 14 -53 67 -99 91 -47 24 -163 35 -209 20z"/>
<path d="M1841 2878 c-18 -5 -57 -33 -86 -61 -80 -80 -87 -118 -83 -447 3
-243 4 -265 21 -268 16 -3 17 16 17 285 0 282 1 289 24 338 91 193 337 173
401 -33 37 -117 -12 -239 -119 -294 -68 -35 -169 -22 -228 30 -16 13 -18 13
-18 0 0 -18 24 -40 67 -62 44 -22 147 -21 198 3 47 21 108 85 131 138 26 59
23 176 -6 236 -27 57 -99 123 -149 137 -44 12 -124 12 -170 -2z"/>
<path d="M2955 2878 c-59 -16 -148 -109 -163 -170 -15 -58 -15 -131 -1 -182
15 -54 110 -148 165 -164 65 -19 167 -15 217 8 74 35 141 123 149 195 4 41
-29 49 -37 8 -18 -84 -57 -134 -134 -172 -111 -56 -243 -14 -308 97 -35 59
-37 166 -5 227 44 85 122 135 212 135 74 0 171 -48 170 -84 0 -6 -75 -60 -165
-120 -91 -60 -165 -112 -165 -117 0 -28 42 -8 197 96 96 65 177 124 180 132 7
18 -31 58 -86 91 -50 29 -158 39 -226 20z"/>
<path d="M3573 2874 c-49 -18 -113 -79 -139 -132 -11 -23 -20 -67 -22 -115 -4
-68 -1 -84 22 -132 19 -37 42 -65 74 -88 68 -48 95 -57 173 -57 111 0 187 42
239 133 34 60 41 121 13 115 -12 -2 -20 -16 -24 -40 -18 -115 -159 -203 -281
-177 -62 14 -120 57 -155 116 -23 40 -27 58 -27 118 0 83 22 133 82 187 52 47
100 62 175 55 63 -6 142 -48 142 -77 0 -8 -72 -63 -160 -122 -88 -60 -161
-113 -163 -117 -2 -5 2 -12 8 -16 13 -8 359 221 367 243 7 17 -31 58 -86 90
-55 32 -172 40 -238 16z"/>
<path d="M2340 2620 c0 -224 2 -260 15 -260 13 0 15 36 15 260 0 224 -2 260
-15 260 -13 0 -15 -36 -15 -260z"/>
</g>
</svg>
